<?xml version="1.0" encoding="UTF-8" standalone="no"?>
<!-- Created with Inkscape (http://www.inkscape.org/) -->

<svg
   width="37.014149mm"
   height="12.68095mm"
   viewBox="0 0 37.014149 12.68095"
   version="1.1"
   id="svg5"
   inkscape:version="1.2.2 (b0a8486541, 2022-12-01)"
   sodipodi:docname="path-drawing-logo-resized.svg"
   xmlns:inkscape="http://www.inkscape.org/namespaces/inkscape"
   xmlns:sodipodi="http://sodipodi.sourceforge.net/DTD/sodipodi-0.dtd"
   xmlns="http://www.w3.org/2000/svg"
   xmlns:svg="http://www.w3.org/2000/svg">
  <sodipodi:namedview
     id="namedview7"
     pagecolor="#ffffff"
     bordercolor="#000000"
     borderopacity="0.25"
     inkscape:showpageshadow="2"
     inkscape:pageopacity="0.0"
     inkscape:pagecheckerboard="0"
     inkscape:deskcolor="#d1d1d1"
     inkscape:document-units="mm"
     showgrid="true"
     inkscape:zoom="1.6504118"
     inkscape:cx="224.79238"
     inkscape:cy="101.18687"
     inkscape:window-width="1536"
     inkscape:window-height="791"
     inkscape:window-x="0"
     inkscape:window-y="0"
     inkscape:window-maximized="1"
     inkscape:current-layer="layer1">
    <inkscape:grid
       type="xygrid"
       id="grid315"
       originx="-0.027517457"
       originy="-6.1925628e-07" />
  </sodipodi:namedview>
  <defs
     id="defs2">
    <rect
       x="204.79558"
       y="116.10795"
       width="1.7137705"
       height="34.27541"
       id="rect169" />
    <rect
       x="99.398689"
       y="116.53639"
       width="286.19968"
       height="83.974747"
       id="rect113" />
  </defs>
  <g
     inkscape:label="Layer 1"
     inkscape:groupmode="layer"
     id="layer1"
     transform="translate(-0.02751746)">
    <g
       aria-label="JAMES 
       CHESHER"
       transform="matrix(0.26458333,0,0,0.26458333,-26.354202,-31.875176)"
       id="text111"
       style="white-space:pre;shape-inside:url(#rect113);display:inline">
      <path
         d="m 111.47044,132.30511 v -11.448 h -4.32 v 11.448 c 0,1.632 -0.384,2.568 -1.8,2.568 -1.416,0 -1.8,-0.936 -1.8,-2.568 v -1.44 h -3.840003 v 1.44 c 0,3.312 1.176003,6.096 5.880003,6.096 4.704,0 5.88,-2.784 5.88,-6.096 z"
         style="font-weight:bold;font-size:24px;font-family:'Neue Montreal';-inkscape-font-specification:'Neue Montreal, Bold'"
         id="path276" />
      <path
         d="m 123.15845,134.44111 1.104,3.576 h 4.32 l -6.192,-17.16 h -4.32 l -6.216,17.16 h 4.32 l 1.104,-3.576 z m -4.896,-3.288 1.944,-6.336 h 0.048 l 1.944,6.336 z"
         style="font-weight:bold;font-size:24px;font-family:'Neue Montreal';-inkscape-font-specification:'Neue Montreal, Bold'"
         id="path278" />
      <path
         d="m 129.78246,138.01711 h 4.08 v -10.68 h 0.048 l 3.192,10.68 h 3.024 l 3.192,-10.68 h 0.048 v 10.68 h 4.08 v -17.16 h -5.28 l -3.528,10.944 h -0.048 l -3.528,-10.944 h -5.28 z"
         style="font-weight:bold;font-size:24px;font-family:'Neue Montreal';-inkscape-font-specification:'Neue Montreal, Bold'"
         id="path280" />
      <path
         d="m 154.11845,127.43311 v -3.048 h 8.688 v -3.528 h -13.008 v 17.16 h 13.152 v -3.528 h -8.832 v -3.528 h 7.488 v -3.528 z"
         style="font-weight:bold;font-size:24px;font-family:'Neue Montreal';-inkscape-font-specification:'Neue Montreal, Bold'"
         id="path282" />
      <path
         d="m 171.97448,127.36111 c -2.16,-0.6 -3.24,-0.936 -3.24,-1.992 0,-0.96 1.008,-1.368 2.304,-1.368 1.656,0 2.76,0.768 2.952,2.064 h 4.32 c -0.12,-3.48 -3.264,-5.592 -7.272,-5.592 -3.696,0 -6.624,1.464 -6.624,5.208 0,3.168 2.592,4.44 5.544,5.304 2.424,0.72 4.272,1.032 4.272,2.4 0,0.864 -0.864,1.488 -2.472,1.488 -1.92,0 -3.504,-0.672 -3.504,-2.496 h -4.32 c 0,3.816 3.36,6.024 7.824,6.024 4.296,0 6.792,-2.136 6.792,-5.424 0,-3.672 -3.336,-4.728 -6.576,-5.616 z"
         style="font-weight:bold;font-size:24px;font-family:'Neue Montreal';-inkscape-font-specification:'Neue Montreal, Bold'"
         id="path284" />
      <path
         d="m 140.03045,157.24111 h 4.32 c -0.408,-3.984 -2.904,-6.768 -7.584,-6.768 -5.424,0 -8.328,3.792 -8.328,8.952 0,5.184 2.904,8.976 8.328,8.976 4.704,0 7.2,-2.784 7.584,-6.816 h -4.32 c -0.288,1.92 -1.152,3.288 -3.456,3.288 -2.856,0 -3.816,-2.208 -3.816,-5.448 0,-3.216 0.96,-5.424 3.816,-5.424 2.28,0 3.144,1.368 3.456,3.24 z"
         style="font-weight:bold;font-size:24px;font-family:'Neue Montreal';-inkscape-font-specification:'Neue Montreal, Bold'"
         id="path286" />
      <path
         d="m 145.86246,150.85711 v 17.16 h 4.32 v -6.912 h 5.88 v 6.912 h 4.32 v -17.16 h -4.32 v 6.72 h -5.88 v -6.72 z"
         style="font-weight:bold;font-size:24px;font-family:'Neue Montreal';-inkscape-font-specification:'Neue Montreal, Bold'"
         id="path288" />
      <path
         d="m 167.05444,157.43311 v -3.048 h 8.688 v -3.528 h -13.008 v 17.16 h 13.152 v -3.528 h -8.832 v -3.528 h 7.488 v -3.528 z"
         style="font-weight:bold;font-size:24px;font-family:'Neue Montreal';-inkscape-font-specification:'Neue Montreal, Bold'"
         id="path290" />
      <path
         d="m 184.91047,157.36111 c -2.16,-0.6 -3.24,-0.936 -3.24,-1.992 0,-0.96 1.008,-1.368 2.304,-1.368 1.656,0 2.76,0.768 2.952,2.064 h 4.32 c -0.12,-3.48 -3.264,-5.592 -7.272,-5.592 -3.696,0 -6.624,1.464 -6.624,5.208 0,3.168 2.592,4.44 5.544,5.304 2.424,0.72 4.272,1.032 4.272,2.4 0,0.864 -0.864,1.488 -2.472,1.488 -1.92,0 -3.504,-0.672 -3.504,-2.496 h -4.32 c 0,3.816 3.36,6.024 7.824,6.024 4.296,0 6.792,-2.136 6.792,-5.424 0,-3.672 -3.336,-4.728 -6.576,-5.616 z"
         style="font-weight:bold;font-size:24px;font-family:'Neue Montreal';-inkscape-font-specification:'Neue Montreal, Bold'"
         id="path292" />
      <path
         d="m 193.21445,150.85711 v 17.16 h 4.32 v -6.912 h 5.88 v 6.912 h 4.32 v -17.16 h -4.32 v 6.72 h -5.88 v -6.72 z"
         style="font-weight:bold;font-size:24px;font-family:'Neue Montreal';-inkscape-font-specification:'Neue Montreal, Bold'"
         id="path294" />
      <path
         d="m 214.40643,157.43311 v -3.048 h 8.688 v -3.528 h -13.008 v 17.16 h 13.152 v -3.528 h -8.832 v -3.528 h 7.488 v -3.528 z"
         style="font-weight:bold;font-size:24px;font-family:'Neue Montreal';-inkscape-font-specification:'Neue Montreal, Bold'"
         id="path296" />
      <path
         d="m 225.15844,168.01711 h 4.32 v -5.976 h 2.688 c 3.672,0 2.112,5.256 2.952,5.976 h 4.488 v -0.24 c -0.984,-0.288 0.576,-6.936 -3.72,-7.68 v -0.048 c 2.136,-0.48 3.48,-1.92 3.48,-4.2 0,-3.24 -2.304,-4.992 -6.12,-4.992 h -8.088 z m 4.32,-13.632 h 2.928 c 1.728,0 2.64,0.624 2.64,2.064 0,1.44 -0.912,2.064 -2.64,2.064 h -2.928 z"
         style="font-weight:bold;font-size:24px;font-family:'Neue Montreal';-inkscape-font-specification:'Neue Montreal, Bold'"
         id="path298" />
    </g>
    <text
       xml:space="preserve"
       transform="scale(0.26458333)"
       id="text167"
       style="font-style:normal;font-variant:normal;font-weight:bold;font-stretch:normal;font-size:24px;font-family:'Neue Montreal';-inkscape-font-specification:'Neue Montreal, Bold';font-variant-ligatures:normal;font-variant-caps:normal;font-variant-numeric:normal;font-variant-east-asian:normal;white-space:pre;shape-inside:url(#rect169);display:inline;fill:#000000" />
    <rect
       style="fill:#000000;stroke-width:0.232666"
       id="rect515"
       width="7.9375"
       height="1.023"
       x="25.456045"
       y="2.0045791" />
  </g>
</svg>
